# xmcd
#
# Track frame offsets:
#	150
#	11629
#	23212
#	35552
#	47415
#	66737
#	79899
#	92746
#	104686
#	115554
#	126117
#	139179
#	150931
#	163110
#	176366
#	189852
#	205996
#	225853
#	245342
#	263557
#
# Disc length: 3725 seconds
#
# Revision: 0
# Processed by: cddbd v1.5.2PL0 Copyright (c) Steve Scherf et al.
# Submitted via: dBpowerAMP V4.0
#
DISCID=fe0e8b14
DTITLE=Various Artist - Blues Brother Soul Sister
DYEAR=2005
DGENRE=Blues
TTITLE0=These Arms of Mine - Otis Reading
TTITLE1=Piece of my Heart - Erma Franklin
TTITLE2=I'm in the Mood - John Lee Hooker
TTITLE3=In the Midnight Hour - Wilson Pickett
TTITLE4=Abraham, Martin and John - Marvin Gaye
TTITLE5=B-A-B-Y - Carla Thomas
TTITLE6=Tired of Being Alone - Al Green
TTITLE7=Private Number - Judy Clay and William Bell
TTITLE8=Respect - Aretha Franklin
TTITLE9=Sweet Soul Music - Arthur Conley
TTITLE10=Green Onions - Booker T. and the MG's
TTITLE11=Oh No not My Baby - Maxine Brown
TTITLE12=Under the Boardwalk - The Drifters
TTITLE13=Dust my Broom - Elmore James
TTITLE14=Stand by me - Ben E. King
TTITLE15=I'll be the Other Woman - Soul Children
TTITLE16=Stormy Monday - Little Milton
TTITLE17=Midnight Train to Georgia - Gladys Knight and the Pips
TTITLE18=It's A Man's Man's World (live) - James Brown
TTITLE19=Stay with me - Lorraine Ellison
EXTD=
EXTT0=
EXTT1=
EXTT2=
EXTT3=
EXTT4=
EXTT5=
EXTT6=
EXTT7=
EXTT8=
EXTT9=
EXTT10=
EXTT11=
EXTT12=
EXTT13=
EXTT14=
EXTT15=
EXTT16=
EXTT17=
EXTT18=
EXTT19=
PLAYORDER=
